<svg width="240" height="240" viewBox="0 0 240 240" fill="none" xmlns="http://www.w3.org/2000/svg">
<mask id="path-1-inside-1_1_6391" fill="white">
<path d="M81.3846 38.7732C82.2802 35.6835 85.7937 34.2027 88.6306 35.7194L93.33 38.2317C95.7209 39.5099 98.6943 38.6767 100.073 36.3423L102.783 31.754C104.419 28.9841 108.19 28.4236 110.561 30.5981L114.488 34.2002C116.486 36.0328 119.573 35.9653 121.489 34.0471L125.254 30.2768C127.528 28.0007 131.32 28.3958 133.075 31.0916L135.983 35.5571C137.462 37.829 140.47 38.5313 142.802 37.1499L147.387 34.4345C150.155 32.7953 153.73 34.121 154.76 37.1686L156.466 42.217C157.334 44.7854 160.072 46.2135 162.675 45.4556L167.791 43.9658C170.88 43.0664 174.012 45.2396 174.252 48.4475L174.649 53.7615C174.851 56.4651 177.147 58.5293 179.857 58.4425L185.183 58.2718C188.398 58.1689 190.892 61.0528 190.327 64.2196L189.39 69.4653C188.913 72.1342 190.624 74.7046 193.27 75.2944L198.471 76.4537C201.611 77.1536 203.31 80.5671 201.974 83.4937L199.762 88.3416C198.636 90.808 199.654 93.7233 202.071 94.9526L206.82 97.369C209.687 98.8277 210.484 102.556 208.462 105.059L205.114 109.204C203.41 111.313 203.671 114.39 205.706 116.182L209.705 119.703C212.12 121.829 211.964 125.639 209.383 127.56L205.109 130.743C202.935 132.362 202.423 135.407 203.948 137.648L206.946 142.054C208.756 144.713 207.657 148.364 204.68 149.584L199.749 151.603C197.24 152.631 195.986 155.453 196.906 158.003L198.714 163.016C199.806 166.042 197.834 169.305 194.647 169.745L189.369 170.475C186.683 170.846 184.767 173.268 185.024 175.967L185.529 181.272C185.833 184.474 183.112 187.144 179.916 186.779L174.621 186.173C171.928 185.864 169.47 187.734 169.047 190.412L168.217 195.675C167.716 198.853 164.416 200.762 161.411 199.613L156.434 197.71C153.901 196.741 151.056 197.941 149.981 200.429L147.867 205.321C146.591 208.274 142.92 209.303 140.296 207.443L135.948 204.361C133.736 202.793 130.682 203.247 129.022 205.391L125.758 209.603C123.788 212.146 119.976 212.23 117.897 209.775L114.452 205.709C112.7 203.641 109.628 203.321 107.487 204.984L103.279 208.252C100.738 210.225 97.025 209.358 95.6214 206.464L93.2962 201.669C92.1132 199.229 89.2179 198.156 86.7304 199.234L81.8412 201.353C78.8896 202.633 75.5091 200.869 74.8694 197.717L73.8097 192.494C73.2705 189.837 70.7332 188.077 68.0557 188.503L62.7931 189.34C59.616 189.845 56.7803 187.296 56.9447 184.084L57.217 178.762C57.3555 176.054 55.3356 173.719 52.6364 173.465L47.331 172.967C44.1281 172.666 42.0153 169.492 42.9735 166.421L44.5607 161.334C45.3683 158.746 43.9927 155.982 41.4413 155.065L36.4265 153.263C33.3991 152.175 32.1419 148.576 33.8337 145.839L36.6361 141.307C38.0619 139.001 37.4171 135.981 35.1738 134.459L30.7647 131.466C28.1029 129.66 27.7804 125.86 30.0995 123.631L33.9411 119.938C35.8955 118.059 36.022 114.974 34.2279 112.941L30.7014 108.946C28.5726 106.534 29.205 102.774 32.0057 101.192L36.6449 98.5701C39.0052 97.2363 39.895 94.2793 38.6628 91.8645L36.2407 87.118C34.7785 84.2525 36.3261 80.768 39.4323 79.9316L44.5778 78.546C47.1957 77.8411 48.7929 75.1983 48.1999 72.5528L47.0343 67.3531C46.3307 64.2141 48.6962 61.2238 51.9129 61.1862L57.2413 61.1238C59.9523 61.0921 62.1565 58.9295 62.2401 56.2197L62.4042 50.8934C62.5033 47.678 65.5382 45.37 68.6632 46.1335L73.8397 47.3982C76.4733 48.0417 79.1462 46.4952 79.901 43.8913L81.3846 38.7732Z"/>
</mask>
<path d="M81.3846 38.7732C82.2802 35.6835 85.7937 34.2027 88.6306 35.7194L93.33 38.2317C95.7209 39.5099 98.6943 38.6767 100.073 36.3423L102.783 31.754C104.419 28.9841 108.19 28.4236 110.561 30.5981L114.488 34.2002C116.486 36.0328 119.573 35.9653 121.489 34.0471L125.254 30.2768C127.528 28.0007 131.32 28.3958 133.075 31.0916L135.983 35.5571C137.462 37.829 140.47 38.5313 142.802 37.1499L147.387 34.4345C150.155 32.7953 153.73 34.121 154.76 37.1686L156.466 42.217C157.334 44.7854 160.072 46.2135 162.675 45.4556L167.791 43.9658C170.88 43.0664 174.012 45.2396 174.252 48.4475L174.649 53.7615C174.851 56.4651 177.147 58.5293 179.857 58.4425L185.183 58.2718C188.398 58.1689 190.892 61.0528 190.327 64.2196L189.39 69.4653C188.913 72.1342 190.624 74.7046 193.27 75.2944L198.471 76.4537C201.611 77.1536 203.31 80.5671 201.974 83.4937L199.762 88.3416C198.636 90.808 199.654 93.7233 202.071 94.9526L206.82 97.369C209.687 98.8277 210.484 102.556 208.462 105.059L205.114 109.204C203.41 111.313 203.671 114.39 205.706 116.182L209.705 119.703C212.12 121.829 211.964 125.639 209.383 127.56L205.109 130.743C202.935 132.362 202.423 135.407 203.948 137.648L206.946 142.054C208.756 144.713 207.657 148.364 204.68 149.584L199.749 151.603C197.24 152.631 195.986 155.453 196.906 158.003L198.714 163.016C199.806 166.042 197.834 169.305 194.647 169.745L189.369 170.475C186.683 170.846 184.767 173.268 185.024 175.967L185.529 181.272C185.833 184.474 183.112 187.144 179.916 186.779L174.621 186.173C171.928 185.864 169.47 187.734 169.047 190.412L168.217 195.675C167.716 198.853 164.416 200.762 161.411 199.613L156.434 197.71C153.901 196.741 151.056 197.941 149.981 200.429L147.867 205.321C146.591 208.274 142.92 209.303 140.296 207.443L135.948 204.361C133.736 202.793 130.682 203.247 129.022 205.391L125.758 209.603C123.788 212.146 119.976 212.23 117.897 209.775L114.452 205.709C112.7 203.641 109.628 203.321 107.487 204.984L103.279 208.252C100.738 210.225 97.025 209.358 95.6214 206.464L93.2962 201.669C92.1132 199.229 89.2179 198.156 86.7304 199.234L81.8412 201.353C78.8896 202.633 75.5091 200.869 74.8694 197.717L73.8097 192.494C73.2705 189.837 70.7332 188.077 68.0557 188.503L62.7931 189.34C59.616 189.845 56.7803 187.296 56.9447 184.084L57.217 178.762C57.3555 176.054 55.3356 173.719 52.6364 173.465L47.331 172.967C44.1281 172.666 42.0153 169.492 42.9735 166.421L44.5607 161.334C45.3683 158.746 43.9927 155.982 41.4413 155.065L36.4265 153.263C33.3991 152.175 32.1419 148.576 33.8337 145.839L36.6361 141.307C38.0619 139.001 37.4171 135.981 35.1738 134.459L30.7647 131.466C28.1029 129.66 27.7804 125.86 30.0995 123.631L33.9411 119.938C35.8955 118.059 36.022 114.974 34.2279 112.941L30.7014 108.946C28.5726 106.534 29.205 102.774 32.0057 101.192L36.6449 98.5701C39.0052 97.2363 39.895 94.2793 38.6628 91.8645L36.2407 87.118C34.7785 84.2525 36.3261 80.768 39.4323 79.9316L44.5778 78.546C47.1957 77.8411 48.7929 75.1983 48.1999 72.5528L47.0343 67.3531C46.3307 64.2141 48.6962 61.2238 51.9129 61.1862L57.2413 61.1238C59.9523 61.0921 62.1565 58.9295 62.2401 56.2197L62.4042 50.8934C62.5033 47.678 65.5382 45.37 68.6632 46.1335L73.8397 47.3982C76.4733 48.0417 79.1462 46.4952 79.901 43.8913L81.3846 38.7732Z" fill="white" stroke="black" stroke-width="2" mask="url(#path-1-inside-1_1_6391)"/>
<mask id="path-2-inside-2_1_6391" fill="white">
<path d="M84.6881 46.6113C85.5837 43.5216 89.0972 42.0409 91.9342 43.5575L95.3313 45.3736C97.7222 46.6518 100.696 45.8187 102.074 43.4843L104.033 40.1674C105.669 37.3975 109.44 36.837 111.811 39.0116L114.65 41.6155C116.648 43.4481 119.735 43.3806 121.651 41.4624L124.373 38.7369C126.646 36.4608 130.438 36.8558 132.194 39.5516L134.296 42.7796C135.775 45.0515 138.782 45.7539 141.115 44.3724L144.429 42.4096C147.197 40.7703 150.772 42.0961 151.802 45.1437L153.035 48.7931C153.903 51.3615 156.641 52.7896 159.244 52.0317L162.942 50.9547C166.031 50.0554 169.164 52.2285 169.404 55.4365L169.69 59.2778C169.892 61.9814 172.189 64.0456 174.899 63.9588L178.749 63.8354C181.964 63.7324 184.458 66.6164 183.892 69.7832L183.215 73.5752C182.738 76.244 184.449 78.8145 187.095 79.4043L190.855 80.2423C193.995 80.9422 195.694 84.3558 194.358 87.2824L192.759 90.7868C191.633 93.2532 192.651 96.1685 195.068 97.3978L198.501 99.1446C201.368 100.603 202.164 104.332 200.143 106.834L197.723 109.831C196.019 111.94 196.28 115.017 198.315 116.809L201.206 119.354C203.62 121.48 203.464 125.29 200.884 127.211L197.794 129.512C195.62 131.131 195.108 134.176 196.633 136.417L198.8 139.602C200.61 142.261 199.511 145.913 196.534 147.132L192.969 148.592C190.461 149.619 189.207 152.441 190.127 154.991L191.434 158.615C192.526 161.641 190.553 164.904 187.367 165.345L183.551 165.872C180.866 166.243 178.95 168.665 179.206 171.364L179.571 175.199C179.876 178.401 177.154 181.072 173.958 180.706L170.131 180.268C167.438 179.959 164.98 181.829 164.557 184.507L163.957 188.312C163.456 191.489 160.155 193.399 157.151 192.25L153.553 190.874C151.021 189.905 148.175 191.104 147.1 193.593L145.572 197.129C144.296 200.082 140.625 201.111 138 199.251L134.858 197.023C132.646 195.456 129.591 195.909 127.931 198.053L125.572 201.098C123.602 203.641 119.79 203.724 117.711 201.27L115.221 198.331C113.468 196.262 110.397 195.942 108.256 197.605L105.213 199.968C102.673 201.941 98.9598 201.074 97.5562 198.179L95.8753 194.713C94.6924 192.274 91.7971 191.2 89.3096 192.278L85.7753 193.81C82.8237 195.09 79.4432 193.326 78.8034 190.174L78.0374 186.399C77.4982 183.742 74.9609 181.982 72.2835 182.407L68.4792 183.012C65.3022 183.518 62.4664 180.969 62.6308 177.756L62.8276 173.909C62.9662 171.202 60.9463 168.866 58.2471 168.612L54.4119 168.252C51.209 167.951 49.0962 164.778 50.0544 161.707L51.2018 158.029C52.0093 155.441 50.6337 152.677 48.0823 151.76L44.4572 150.457C41.4298 149.369 40.1726 145.77 41.8644 143.034L43.8902 139.757C45.316 137.451 44.6712 134.432 42.428 132.909L39.2407 130.746C36.579 128.939 36.2564 125.14 38.5755 122.911L41.3525 120.241C43.3069 118.362 43.4334 115.277 41.6393 113.244L39.0901 110.356C36.9613 107.945 37.5936 104.185 40.3943 102.602L43.748 100.707C46.1083 99.3731 46.9981 96.4161 45.7658 94.0012L44.0149 90.57C42.5527 87.7046 44.1003 84.2201 47.2066 83.3836L50.9262 82.382C53.544 81.6771 55.1412 79.0343 54.5482 76.3889L53.7057 72.6301C53.002 69.491 55.3675 66.5008 58.5842 66.4632L62.436 66.4181C65.147 66.3863 67.3512 64.2238 67.4348 61.5139L67.5534 57.6637C67.6525 54.4483 70.6874 52.1403 73.8124 52.9038L77.5544 53.818C80.188 54.4615 82.8609 52.915 83.6157 50.3111L84.6881 46.6113Z"/>
</mask>
<path d="M84.6881 46.6113C85.5837 43.5216 89.0972 42.0409 91.9342 43.5575L95.3313 45.3736C97.7222 46.6518 100.696 45.8187 102.074 43.4843L104.033 40.1674C105.669 37.3975 109.44 36.837 111.811 39.0116L114.65 41.6155C116.648 43.4481 119.735 43.3806 121.651 41.4624L124.373 38.7369C126.646 36.4608 130.438 36.8558 132.194 39.5516L134.296 42.7796C135.775 45.0515 138.782 45.7539 141.115 44.3724L144.429 42.4096C147.197 40.7703 150.772 42.0961 151.802 45.1437L153.035 48.7931C153.903 51.3615 156.641 52.7896 159.244 52.0317L162.942 50.9547C166.031 50.0554 169.164 52.2285 169.404 55.4365L169.69 59.2778C169.892 61.9814 172.189 64.0456 174.899 63.9588L178.749 63.8354C181.964 63.7324 184.458 66.6164 183.892 69.7832L183.215 73.5752C182.738 76.244 184.449 78.8145 187.095 79.4043L190.855 80.2423C193.995 80.9422 195.694 84.3558 194.358 87.2824L192.759 90.7868C191.633 93.2532 192.651 96.1685 195.068 97.3978L198.501 99.1446C201.368 100.603 202.164 104.332 200.143 106.834L197.723 109.831C196.019 111.94 196.28 115.017 198.315 116.809L201.206 119.354C203.62 121.48 203.464 125.29 200.884 127.211L197.794 129.512C195.62 131.131 195.108 134.176 196.633 136.417L198.8 139.602C200.61 142.261 199.511 145.913 196.534 147.132L192.969 148.592C190.461 149.619 189.207 152.441 190.127 154.991L191.434 158.615C192.526 161.641 190.553 164.904 187.367 165.345L183.551 165.872C180.866 166.243 178.95 168.665 179.206 171.364L179.571 175.199C179.876 178.401 177.154 181.072 173.958 180.706L170.131 180.268C167.438 179.959 164.98 181.829 164.557 184.507L163.957 188.312C163.456 191.489 160.155 193.399 157.151 192.25L153.553 190.874C151.021 189.905 148.175 191.104 147.1 193.593L145.572 197.129C144.296 200.082 140.625 201.111 138 199.251L134.858 197.023C132.646 195.456 129.591 195.909 127.931 198.053L125.572 201.098C123.602 203.641 119.79 203.724 117.711 201.27L115.221 198.331C113.468 196.262 110.397 195.942 108.256 197.605L105.213 199.968C102.673 201.941 98.9598 201.074 97.5562 198.179L95.8753 194.713C94.6924 192.274 91.7971 191.2 89.3096 192.278L85.7753 193.81C82.8237 195.09 79.4432 193.326 78.8034 190.174L78.0374 186.399C77.4982 183.742 74.9609 181.982 72.2835 182.407L68.4792 183.012C65.3022 183.518 62.4664 180.969 62.6308 177.756L62.8276 173.909C62.9662 171.202 60.9463 168.866 58.2471 168.612L54.4119 168.252C51.209 167.951 49.0962 164.778 50.0544 161.707L51.2018 158.029C52.0093 155.441 50.6337 152.677 48.0823 151.76L44.4572 150.457C41.4298 149.369 40.1726 145.77 41.8644 143.034L43.8902 139.757C45.316 137.451 44.6712 134.432 42.428 132.909L39.2407 130.746C36.579 128.939 36.2564 125.14 38.5755 122.911L41.3525 120.241C43.3069 118.362 43.4334 115.277 41.6393 113.244L39.0901 110.356C36.9613 107.945 37.5936 104.185 40.3943 102.602L43.748 100.707C46.1083 99.3731 46.9981 96.4161 45.7658 94.0012L44.0149 90.57C42.5527 87.7046 44.1003 84.2201 47.2066 83.3836L50.9262 82.382C53.544 81.6771 55.1412 79.0343 54.5482 76.3889L53.7057 72.6301C53.002 69.491 55.3675 66.5008 58.5842 66.4632L62.436 66.4181C65.147 66.3863 67.3512 64.2238 67.4348 61.5139L67.5534 57.6637C67.6525 54.4483 70.6874 52.1403 73.8124 52.9038L77.5544 53.818C80.188 54.4615 82.8609 52.915 83.6157 50.3111L84.6881 46.6113Z" fill="#FCEA2B" stroke="black" stroke-width="1.7898" mask="url(#path-2-inside-2_1_6391)"/>
<circle cx="119.865" cy="119.956" r="69.5176" transform="rotate(-22.8527 119.865 119.956)" fill="#2C2C2C" stroke="black" stroke-width="0.894899"/>
<circle cx="119.865" cy="119.955" r="44.2157" transform="rotate(-22.8527 119.865 119.955)" fill="#FFEA01" stroke="black" stroke-width="0.894899"/>
<path d="M151.658 108.917C154.411 116.846 154.102 125.517 150.792 133.229C147.482 140.942 141.409 147.139 133.766 150.606C126.122 154.073 117.459 154.558 109.476 151.967C101.493 149.376 94.7662 143.896 90.615 136.602" stroke="black" stroke-width="0.894899"/>
<ellipse cx="150.91" cy="108.09" rx="6.86872" ry="5.43829" transform="rotate(-22.8527 150.91 108.09)" fill="#FFEA01"/>
<path fill-rule="evenodd" clip-rule="evenodd" d="M144.725 110.585C146.37 113.108 149.861 114.091 153.01 112.764C156.16 111.437 157.894 108.252 157.237 105.312L157.789 105.079C158.557 108.296 156.67 111.805 153.219 113.259C149.768 114.713 145.939 113.613 144.173 110.818L144.725 110.585Z" fill="black"/>
<path fill-rule="evenodd" clip-rule="evenodd" d="M110.073 130.098C113.794 128.53 114.48 121.728 111.605 114.906C108.73 108.084 103.382 103.825 99.661 105.393C96.8455 106.579 95.7676 110.762 96.6549 115.682L102.513 120.12L98.654 121.747C101.62 127.882 106.568 131.576 110.073 130.098Z" fill="#000B1F"/>
<path fill-rule="evenodd" clip-rule="evenodd" d="M134.062 119.988C137.783 118.42 138.469 111.618 135.594 104.795C132.719 97.9732 127.371 93.714 123.65 95.2823C120.835 96.4689 119.757 100.651 120.644 105.572L126.502 110.01L122.643 111.636C125.609 117.772 130.557 121.465 134.062 119.988Z" fill="#000B1F"/>
<path d="M72.3779 133.863L71.8446 128.548L68.1383 128.919L66.0644 126.906L71.1887 122.01L70.541 115.555L62.6216 123.549L55.964 117.059L56.6342 123.738L62.595 129.434L62.5991 129.475L57.2636 130.011L57.7969 135.326L72.3779 133.863Z" fill="white"/>
<path d="M70.8787 115.973L74.6264 100.771L71.4072 99.9778L68.8989 110.152L66.2559 109.501L68.5192 100.32L65.7571 99.6389L63.4937 108.82L61.1091 108.232L63.5684 98.2562L60.3491 97.4625L56.6504 112.466L70.8787 115.973Z" fill="white"/>
<path d="M75.244 98.8053L83.8564 85.7296L81.0874 83.9058L75.3233 92.6572L73.05 91.1598L78.2512 83.2631L75.8754 81.6983L70.6742 89.595L68.6231 88.244L74.2746 79.6636L71.5056 77.8398L63.0059 90.7446L75.244 98.8053Z" fill="white"/>
<path d="M85.5592 84.6924L89.7594 81.3919L86.99 77.8675L92.0432 73.8968C95.3261 71.317 96.0444 68.488 94.0625 65.9327C92.0139 63.3257 89.0573 63.3063 85.7904 65.8733L76.5049 73.1699L85.5592 84.6924ZM85.1311 75.5019L82.564 72.235L86.2493 69.3392C87.7137 68.1884 88.9736 68.1355 89.7956 69.1815C90.6302 70.2436 90.2808 71.4552 88.8164 72.606L85.1311 75.5019Z" fill="white"/>
<path d="M110.375 73.0439C115.643 71.9348 118.621 69.1951 117.977 66.2352C117.429 63.6316 115.068 62.7484 110.116 63.2682L107.393 63.5487C105.513 63.7564 104.64 63.5846 104.526 63.0439C104.386 62.2786 105.786 61.4817 107.825 61.0315C110.024 60.5476 112.526 60.7109 114.308 61.4234L115.137 58.1114C113.134 57.3409 110.139 57.2187 107.115 57.8555C102.007 58.9309 98.8895 61.4071 99.539 64.4914C100.075 67.0349 102.283 67.8876 106.91 67.4152L109.617 67.1589C111.851 66.9396 112.852 67.1261 112.983 67.747C113.139 68.488 111.959 69.2386 109.936 69.6645C107.192 70.2422 103.885 69.9346 101.945 68.9628L100.796 72.4466C103.03 73.5238 106.931 73.7693 110.375 73.0439Z" fill="#FCEA2B"/>
<path d="M118.613 70.2048L123.531 71.2833L125.499 62.3069L125.539 62.3157L128.209 72.3092L132.667 73.2868L139.114 65.2926L139.154 65.3013L137.185 74.2777L142.103 75.3562L145.242 61.042L138.405 59.5427L131.376 68.1845L131.336 68.1758L128.509 57.3725L121.752 55.8906L118.613 70.2048Z" fill="#FCEA2B"/>
<path d="M142.092 76.9177L146.675 79.5809L154.037 66.9102L149.454 64.2471L142.092 76.9177Z" fill="#FCEA2B"/>
<path d="M148.088 80.4404L158.591 90.0632L161.232 87.1808L154.668 81.1666L161.926 73.2438L157.987 69.6353L148.088 80.4404Z" fill="#FCEA2B"/>
<path d="M159.485 90.9782L166.942 104.745L169.858 103.166L164.866 93.9521L167.26 92.6556L171.764 100.97L174.265 99.6149L169.761 91.3006L171.921 90.1308L176.815 99.1649L179.73 97.5857L172.37 83.9985L159.485 90.9782Z" fill="#FCEA2B"/>
<path d="M167.566 107.838L169.189 123.411L172.487 123.067L171.401 112.645L174.108 112.363L175.088 121.767L177.918 121.473L176.938 112.068L179.38 111.813L180.445 122.032L183.743 121.689L182.142 106.319L167.566 107.838Z" fill="white"/>
<path d="M167.882 129.25L166.404 135.062L178.815 145.716L180.182 140.34L171.499 133.296L171.509 133.256L182.508 131.196L183.87 125.841L167.882 129.25Z" fill="white"/>
<path d="M164.374 141.533L155.545 154.464L158.284 156.333L164.193 147.679L166.441 149.214L161.109 157.023L163.458 158.628L168.79 150.819L170.818 152.204L165.025 160.689L167.763 162.558L176.477 149.797L164.374 141.533Z" fill="white"/>
<path d="M142.494 163.497C141.393 164.279 140.375 165.603 140.127 166.633L142.105 167.864C142.139 167.488 142.433 167.054 142.717 166.852C143.185 166.521 143.61 166.519 144.041 166.666L145.804 167.347C146.396 167.579 146.988 167.636 147.495 167.502L147.507 167.519C145.617 169.488 145.237 171.64 146.504 173.426C148.21 175.829 151.029 175.911 154.234 173.637L164.281 166.505L155.799 154.555L151.443 157.647L154.263 161.619L151.709 163.432C150.925 163.988 149.953 164.176 148.955 163.83L147.316 163.112C145.932 162.613 144.297 162.217 142.494 163.497ZM156.004 164.073L158.101 167.027L153.711 170.142C152.46 171.031 151.334 171.001 150.671 170.067C150.019 169.149 150.363 168.077 151.615 167.188L156.004 164.073Z" fill="white"/>
<path d="M134.067 166.966L128.876 168.228L130.055 173.08L125.515 184.125L131.044 182.782L133.442 175.838L133.462 175.833L138.979 180.853L144.448 179.524L135.246 171.819L134.067 166.966Z" fill="white"/>
<path d="M122.569 169.865L112.255 168.394C106.623 167.59 103.112 169.736 102.447 174.396C101.782 179.056 104.553 182.098 110.186 182.901L120.499 184.373L122.569 169.865ZM116.91 172.717L115.861 180.072L111.424 179.439C108.628 179.04 107.238 177.478 107.573 175.127C107.909 172.777 109.677 171.685 112.473 172.084L116.91 172.717Z" fill="white"/>
<path d="M104.39 167.614L99.6218 164.82L97.3572 166.458L91.053 162.764L91.3575 159.978L86.5719 157.174L85.3266 173.428L90.6772 176.564L104.39 167.614ZM94.9357 168.526L89.7472 172.199L89.7119 172.179L90.415 165.878L94.9357 168.526Z" fill="white"/>
<path d="M83.197 152.367L79.9123 148.154L75.9741 151.225L64.0392 151.629L67.5379 156.116L74.8538 155.447L74.8664 155.463L72.5595 162.556L76.0205 166.995L79.2589 155.438L83.197 152.367Z" fill="white"/>
<path d="M75.7674 140.222C75.1338 138.802 73.7968 138.165 72.5818 138.707C71.3481 139.257 70.9468 140.669 71.5803 142.09C72.2139 143.51 73.5239 144.136 74.7576 143.586C75.9726 143.044 76.401 141.643 75.7674 140.222Z" fill="white"/>
</svg>
