<svg width="425" height="611" viewBox="0 0 425 611" fill="none" xmlns="http://www.w3.org/2000/svg">
<path d="M372.5 506L375.515 546.266L396.898 512.014L380.855 549.069L415.707 528.677L384.281 554.032L424.617 552.172L385.008 560.019L421.588 577.117L382.87 565.658L407.314 597.797L378.356 569.657L385.064 609.474L372.5 571.1L359.936 609.474L366.644 569.657L337.686 597.797L362.13 565.658L323.412 577.117L359.992 560.019L320.383 552.172L360.719 554.032L329.293 528.677L364.145 549.069L348.102 512.014L369.485 546.266L372.5 506Z" fill="#9A90D7"/>
<path d="M37.6568 47.9852C35.9898 40.4699 43.0836 33.9683 50.4256 36.2823L93.3639 49.8159C100.706 52.13 102.79 61.5242 97.1145 66.7255L63.9249 97.1444C58.2499 102.346 49.0725 99.4531 47.4055 91.9377L37.6568 47.9852Z" fill="#F7CCAC"/>
</svg>
