<svg width="207" height="79" viewBox="0 0 207 79" fill="none" xmlns="http://www.w3.org/2000/svg">
<path d="M97.2667 4.99945L109.061 9.46538L123.147 1.35589L129.944 7.44235L147.799 0.104141L149.171 7.4287L169.674 1.32286L165.536 9.42529L187.397 4.93547L178.008 13.3067L199.855 10.715L185.806 18.8289L206.265 18.2982L188.438 25.6451L206.224 27.2087L185.739 33.327L199.735 36.8866L177.879 41.3917L187.205 46.7238L165.352 49.3327L169.422 56.1022L148.945 56.651L147.503 64.4325L129.689 62.8867L122.826 71.1912L108.793 67.6479L96.9404 75.9538L87.5712 70.6357L71.4734 78.4209L67.3565 71.6621L48.0249 78.4375L49.419 70.6627L28.0685 76.0027L34.886 67.7004L12.8579 71.2693L24.6705 62.9612L3.34905 64.5348L19.4144 56.7429L0.139297 56.2224L19.448 49.4363L3.43036 46.8543L24.7692 41.5004L13.0154 37.0192L35.0436 33.4339L28.2923 27.3351L49.6256 25.7437L48.301 18.4104L67.5991 18.9129L71.7843 10.8059L87.8346 13.3707L97.2667 4.99945Z" fill="#2E2E2E"/>
</svg>
