<svg width="23" height="22" viewBox="0 0 23 22" fill="none" xmlns="http://www.w3.org/2000/svg">
<path fill-rule="evenodd" clip-rule="evenodd" d="M22.222 10.6995C22.222 4.79087 17.2468 0 11.111 0C4.97514 0 0 4.79087 0 10.6995C0 16.0396 4.06245 20.4661 9.37489 21.2695L9.37489 13.7932H6.553V10.6995H9.37489V8.34224C9.37489 5.66116 11.0341 4.179 13.5718 4.179C14.7875 4.179 16.0593 4.38821 16.0593 4.38821V7.02152H14.6576C13.2781 7.02152 12.8466 7.84595 12.8466 8.69331V10.6995H15.9279L15.4358 13.7932H12.8471L12.8471 21.2704C18.1595 20.4675 22.222 16.0411 22.222 10.6995V10.6995Z" fill="#2E2E2E"/>
</svg>
